<svg width="16" height="16" viewBox="0 0 16 16" fill="none" xmlns="http://www.w3.org/2000/svg">
<g id="surface25640892">
<path style=" stroke:none;fill-rule:nonzero;fill:rgb(100%,100%,100%);fill-opacity:1;" d="M 8 -0.449219 C 3.332031 -0.449219 -0.449219 3.332031 -0.449219 8 C -0.449219 11.988281 2.316406 15.332031 6.035156 16.21875 C 5.84375 16.171875 5.652344 16.121094 5.464844 16.0625 L 5.464844 14.125 C 5.464844 14.125 5.148438 14.230469 4.726562 14.230469 C 3.542969 14.230469 3.050781 13.175781 2.929688 12.648438 C 2.855469 12.324219 2.660156 12.019531 2.453125 11.832031 C 2.203125 11.609375 2.085938 11.609375 2.085938 11.53125 C 2.082031 11.375 2.300781 11.378906 2.402344 11.378906 C 2.929688 11.378906 3.332031 11.941406 3.515625 12.234375 C 3.976562 12.949219 4.472656 13.070312 4.726562 13.070312 C 5.042969 13.070312 5.316406 13.023438 5.503906 12.929688 C 5.589844 12.316406 5.863281 11.769531 6.308594 11.378906 C 4.328125 10.984375 2.929688 9.847656 2.929688 8 C 2.929688 7.046875 3.3125 6.171875 3.949219 5.46875 C 3.882812 5.285156 3.773438 4.910156 3.773438 4.304688 C 3.773438 3.902344 3.804688 3.410156 3.984375 2.929688 C 3.984375 2.929688 5.191406 2.9375 6.328125 4.015625 C 6.851562 3.863281 7.414062 3.773438 8 3.773438 C 8.585938 3.773438 9.148438 3.863281 9.671875 4.015625 C 10.808594 2.9375 12.015625 2.929688 12.015625 2.929688 C 12.199219 3.410156 12.226562 3.902344 12.226562 4.304688 C 12.226562 4.957031 12.136719 5.339844 12.085938 5.503906 C 12.703125 6.203125 13.070312 7.066406 13.070312 8 C 13.070312 9.847656 11.671875 10.984375 9.691406 11.378906 C 10.21875 11.84375 10.535156 12.523438 10.535156 13.28125 L 10.535156 16.0625 C 10.347656 16.121094 10.15625 16.171875 9.964844 16.21875 C 13.683594 15.332031 16.449219 11.988281 16.449219 8 C 16.449219 3.332031 12.667969 -0.449219 8 -0.449219 Z M 8.589844 16.425781 C 8.394531 16.441406 8.199219 16.449219 8 16.449219 C 8.199219 16.449219 8.394531 16.441406 8.589844 16.425781 Z M 9.878906 16.238281 C 9.503906 16.324219 9.113281 16.382812 8.71875 16.417969 C 9.113281 16.382812 9.503906 16.324219 9.878906 16.238281 Z M 8 16.449219 C 7.800781 16.449219 7.605469 16.441406 7.410156 16.425781 C 7.605469 16.441406 7.800781 16.449219 8 16.449219 Z M 7.28125 16.417969 C 6.886719 16.382812 6.496094 16.324219 6.121094 16.238281 C 6.496094 16.324219 6.886719 16.382812 7.28125 16.417969 Z M 7.28125 16.417969 "/>
</g>
</svg>
