<?xml version="1.0" encoding="UTF-8"?>
<svg xmlns="http://www.w3.org/2000/svg" xmlns:xlink="http://www.w3.org/1999/xlink" viewBox="0 0 204 204" width="204px" height="204px">
<g id="surface345790346">
<path style=" stroke:none;fill-rule:nonzero;fill:rgb(0%,0%,0%);fill-opacity:1;" d="M 122.527344 12.238281 C 121.859375 12.222656 121.1875 12.367188 120.582031 12.671875 C 118.015625 13.945312 116.375 15.824219 114.894531 17.46875 C 113.425781 19.109375 112.328125 20.574219 112.328125 20.574219 C 112.28125 20.640625 112.230469 20.703125 112.199219 20.765625 C 108.152344 26.855469 106.160156 33.789062 106.078125 40.769531 C 106.03125 46.140625 107.117188 51.542969 109.21875 56.625 C 114.367188 68.976562 124.710938 78.523438 136.871094 83.082031 L 136.886719 83.082031 C 137.445312 83.304688 137.9375 83.480469 138.335938 83.625 C 138.402344 83.640625 138.464844 83.65625 138.527344 83.6875 C 138.609375 83.703125 138.785156 83.765625 139.085938 83.847656 C 139.546875 84.007812 140.328125 84.324219 141.476562 84.546875 C 144.808594 85.21875 147.914062 85.570312 150.832031 85.664062 C 163.742188 86.0625 172.683594 81.089844 178.261719 75.65625 C 181.050781 72.929688 183.042969 70.109375 184.445312 67.8125 C 185.863281 65.519531 186.945312 63.445312 186.960938 63.429688 L 186.980469 63.429688 C 188.207031 61.566406 187.710938 59.0625 185.878906 57.804688 C 184.03125 56.546875 181.511719 57.007812 180.222656 58.839844 C 177.066406 63.480469 173.144531 66.140625 168.140625 67.429688 C 163.136719 68.722656 156.984375 68.53125 149.925781 66.777344 C 148.96875 66.539062 147.789062 66.15625 146.71875 65.757812 C 146.71875 65.757812 146.703125 65.757812 146.6875 65.742188 C 145.398438 65.28125 144.074219 64.722656 142.785156 64.101562 L 142.769531 64.085938 L 142.734375 64.070312 C 140.328125 62.875 138.003906 61.4375 135.882812 59.78125 C 130.019531 55.222656 125.460938 47.765625 123.515625 39.972656 C 121.570312 32.179688 122.242188 24.242188 125.859375 18.488281 C 126.640625 17.246094 126.6875 15.683594 126 14.390625 C 125.316406 13.101562 123.992188 12.289062 122.527344 12.238281 Z M 85.664062 20.398438 C 84.722656 20.398438 83.816406 20.734375 83.097656 21.324219 C 76.5625 26.648438 70.347656 34.917969 70.347656 34.917969 C 70.300781 34.96875 70.269531 35.03125 70.238281 35.09375 C 58.15625 52.65625 58.90625 75.75 68.101562 93.96875 C 69.613281 96.980469 71.335938 99.914062 73.265625 102.703125 C 73.28125 102.71875 73.28125 102.71875 73.28125 102.71875 C 74.792969 104.949219 76.628906 107.863281 79.273438 110.304688 C 80.132812 111.292969 81.027344 112.214844 81.917969 113.09375 C 82.125 113.316406 82.347656 113.539062 82.554688 113.746094 C 82.570312 113.777344 82.589844 113.792969 82.605469 113.792969 C 83.449219 114.621094 84.324219 115.453125 85.234375 116.265625 L 85.25 116.28125 C 85.28125 116.3125 85.328125 116.359375 85.359375 116.390625 L 85.425781 116.421875 C 85.472656 116.488281 85.535156 116.535156 85.601562 116.582031 C 86.554688 117.445312 87.527344 118.257812 88.53125 119.039062 C 88.582031 119.085938 88.613281 119.117188 88.660156 119.148438 C 88.660156 119.148438 88.882812 119.339844 89.34375 119.675781 C 90.367188 120.472656 91.402344 121.238281 92.421875 121.96875 C 92.550781 122.066406 92.691406 122.160156 92.820312 122.226562 C 92.914062 122.289062 92.980469 122.335938 93.058594 122.398438 L 93.074219 122.398438 C 93.441406 122.65625 93.808594 122.894531 94.109375 123.101562 C 94.207031 123.164062 94.429688 123.324219 94.796875 123.5625 C 95.59375 124.089844 96.375 124.566406 97.1875 125.0625 C 97.265625 125.109375 97.363281 125.15625 97.441406 125.203125 C 97.441406 125.203125 97.570312 125.269531 97.710938 125.332031 C 97.746094 125.363281 97.746094 125.347656 97.792969 125.378906 C 98.429688 125.761719 99.082031 126.144531 99.769531 126.496094 C 100.007812 126.640625 100.292969 126.78125 100.375 126.832031 C 100.421875 126.863281 100.46875 126.878906 100.519531 126.910156 C 100.933594 127.117188 101.378906 127.355469 101.839844 127.613281 C 102.238281 127.820312 102.351562 127.835938 102.320312 127.835938 C 103.339844 128.328125 104.3125 128.773438 105.21875 129.207031 C 105.28125 129.222656 105.347656 129.253906 105.425781 129.285156 C 105.617188 129.363281 105.777344 129.429688 105.984375 129.523438 C 106.796875 129.859375 107.640625 130.242188 108.535156 130.574219 C 108.582031 130.59375 108.644531 130.625 108.695312 130.640625 C 108.867188 130.703125 109.171875 130.816406 109.632812 130.992188 C 109.632812 130.992188 109.648438 130.992188 109.648438 131.007812 C 110.414062 131.277344 111.195312 131.53125 111.960938 131.789062 C 112.359375 131.929688 112.710938 132.042969 113.011719 132.152344 C 113.011719 132.152344 113.011719 132.152344 113.027344 132.152344 C 113.875 132.425781 115.132812 132.949219 116.835938 133.238281 C 116.835938 133.238281 116.835938 133.222656 116.855469 133.238281 C 123.292969 134.304688 129.238281 134.734375 134.71875 134.625 C 157.144531 134.128906 171.679688 124.25 180.207031 114.527344 C 188.714844 104.804688 191.585938 94.988281 191.585938 94.988281 C 192.160156 93.058594 191.234375 91.019531 189.417969 90.160156 C 187.617188 89.296875 185.449219 89.886719 184.300781 91.546875 C 173.464844 107.386719 152.394531 115.53125 129.347656 109.457031 C 128.328125 109.203125 127.339844 108.917969 126.367188 108.582031 C 126.304688 108.566406 126.226562 108.535156 126.144531 108.519531 C 126 108.488281 125.8125 108.421875 125.476562 108.3125 C 125.445312 108.296875 125.414062 108.28125 125.394531 108.261719 C 124.648438 108.023438 123.945312 107.800781 123.308594 107.546875 C 123.308594 107.546875 123.308594 107.546875 123.292969 107.546875 C 122.925781 107.402344 122.605469 107.292969 122.335938 107.179688 C 121.523438 106.859375 120.757812 106.558594 120.105469 106.269531 C 120.058594 106.238281 120.023438 106.222656 119.976562 106.207031 C 119.625 106.0625 119.46875 105.984375 119.691406 106.097656 C 119.59375 106.046875 119.5 106.015625 119.402344 105.96875 C 118.511719 105.570312 117.585938 105.140625 116.664062 104.675781 L 116.597656 104.660156 C 116.597656 104.644531 116.582031 104.644531 116.566406 104.628906 C 116.105469 104.390625 115.660156 104.167969 115.195312 103.914062 C 115.179688 103.914062 115.164062 103.898438 115.132812 103.898438 C 114.84375 103.738281 114.574219 103.59375 114.335938 103.464844 L 114.335938 103.480469 C 113.808594 103.210938 113.269531 102.875 112.628906 102.492188 C 112.582031 102.476562 112.550781 102.460938 112.519531 102.445312 C 112.328125 102.335938 112.265625 102.304688 112.230469 102.269531 L 112.214844 102.269531 L 112.183594 102.253906 C 111.402344 101.777344 110.671875 101.332031 110.097656 100.933594 C 110.015625 100.882812 109.921875 100.835938 109.839844 100.789062 C 109.90625 100.820312 109.730469 100.691406 109.316406 100.421875 C 108.886719 100.152344 108.4375 99.863281 107.960938 99.53125 L 107.945312 99.53125 C 107.929688 99.515625 107.914062 99.496094 107.882812 99.496094 C 106.988281 98.84375 106.0625 98.144531 105.125 97.425781 L 105.042969 97.347656 C 104.820312 97.171875 104.628906 97.027344 104.503906 96.914062 C 104.46875 96.898438 104.4375 96.867188 104.40625 96.835938 C 94.238281 88.722656 86.238281 77.617188 82.476562 65.199219 L 82.476562 65.183594 C 78.699219 52.960938 82.589844 37.945312 89.203125 26.519531 C 89.933594 25.261719 89.933594 23.699219 89.203125 22.425781 C 88.46875 21.164062 87.113281 20.398438 85.664062 20.398438 Z M 40.816406 32.640625 C 39.8125 32.640625 38.824219 33.007812 38.074219 33.691406 C 37.851562 33.882812 37.738281 34.089844 37.515625 34.296875 C 29.597656 41.628906 23.953125 50.554688 23.84375 50.746094 C 7.425781 74.601562 9.609375 111.210938 21.867188 135.929688 C 21.867188 135.945312 21.867188 135.960938 21.867188 135.980469 C 22.183594 136.648438 22.503906 137.238281 22.757812 137.699219 C 22.886719 137.988281 23.03125 138.257812 23.171875 138.527344 C 23.476562 139.214844 23.699219 139.5 23.730469 139.546875 C 23.921875 139.914062 24.113281 140.28125 24.257812 140.554688 C 24.273438 140.585938 24.304688 140.632812 24.320312 140.664062 C 24.6875 141.253906 25.039062 141.90625 25.4375 142.5625 C 25.4375 142.578125 25.453125 142.59375 25.46875 142.609375 C 25.644531 142.894531 25.867188 143.308594 26.21875 143.820312 C 26.664062 144.554688 27.078125 145.207031 27.378906 145.683594 C 27.398438 145.714844 27.414062 145.734375 27.414062 145.75 C 27.570312 145.988281 27.761719 146.304688 28.003906 146.640625 C 28.019531 146.671875 28.035156 146.6875 28.050781 146.703125 C 28.066406 146.738281 28.066406 146.753906 28.097656 146.800781 C 28.65625 147.644531 29.246094 148.523438 29.898438 149.429688 C 29.960938 149.507812 29.945312 149.476562 29.996094 149.558594 C 30.042969 149.621094 30.042969 149.621094 30.074219 149.667969 C 30.089844 149.683594 30.121094 149.734375 30.136719 149.765625 L 30.152344 149.78125 C 30.1875 149.828125 30.3125 149.988281 30.3125 149.988281 C 30.3125 150.003906 30.328125 150.019531 30.34375 150.019531 C 30.917969 150.816406 31.507812 151.628906 32.128906 152.425781 C 32.367188 152.746094 32.578125 153.015625 32.6875 153.160156 C 32.71875 153.207031 32.765625 153.253906 32.800781 153.320312 C 33.324219 153.941406 33.835938 154.578125 34.359375 155.230469 C 34.378906 155.261719 34.394531 155.277344 34.410156 155.296875 C 34.570312 155.484375 34.777344 155.726562 35 155.996094 C 35.683594 156.824219 36.386719 157.621094 37.101562 158.417969 C 37.167969 158.484375 37.230469 158.5625 37.292969 158.625 L 37.261719 158.578125 C 37.46875 158.816406 37.835938 159.214844 38.203125 159.453125 L 37.4375 158.800781 C 38.1875 159.628906 38.953125 160.441406 39.714844 161.253906 C 39.730469 161.273438 39.75 161.273438 39.75 161.289062 C 40.019531 161.558594 40.289062 161.828125 40.578125 162.117188 C 41.117188 162.65625 41.691406 163.246094 42.363281 163.886719 C 42.617188 164.125 42.871094 164.347656 43.046875 164.539062 C 43.0625 164.554688 43.0625 164.554688 43.078125 164.554688 C 43.8125 165.257812 44.609375 166.003906 45.453125 166.753906 C 45.535156 166.800781 45.582031 166.867188 45.644531 166.914062 C 45.644531 166.929688 45.644531 166.929688 45.644531 166.929688 C 45.867188 167.121094 45.996094 167.230469 45.964844 167.199219 C 46.011719 167.230469 46.042969 167.28125 46.089844 167.3125 C 46.839844 167.964844 47.589844 168.601562 48.339844 169.242188 C 48.703125 169.527344 49.023438 169.78125 49.292969 170.019531 C 49.3125 170.019531 49.3125 170.019531 49.328125 170.019531 C 49.996094 170.578125 50.632812 171.058594 51.238281 171.519531 C 51.238281 171.535156 51.253906 171.535156 51.253906 171.550781 C 51.558594 171.773438 51.875 172.011719 52.226562 172.285156 C 52.242188 172.300781 52.257812 172.300781 52.273438 172.316406 C 52.992188 172.859375 53.710938 173.367188 54.394531 173.863281 C 54.601562 174.023438 54.839844 174.179688 55.097656 174.355469 C 55.078125 174.339844 55.175781 174.421875 55.144531 174.402344 C 55.253906 174.484375 55.367188 174.5625 55.460938 174.628906 C 56.132812 175.074219 56.785156 175.519531 57.46875 175.964844 C 57.46875 175.980469 57.488281 175.980469 57.488281 175.980469 C 57.789062 176.171875 58.058594 176.363281 58.332031 176.539062 C 58.347656 176.554688 58.363281 176.570312 58.394531 176.585938 C 59.480469 177.289062 60.546875 177.941406 61.597656 178.578125 C 61.664062 178.628906 61.726562 178.660156 61.789062 178.691406 C 62.042969 178.835938 62.285156 178.960938 62.507812 179.089844 C 62.523438 179.105469 62.523438 179.105469 62.539062 179.121094 C 63.351562 179.582031 64.164062 180.0625 65.023438 180.523438 L 64.945312 180.476562 C 65.519531 180.796875 66.027344 181.035156 66.445312 181.242188 C 66.953125 181.527344 67.496094 181.832031 68.070312 182.117188 C 68.148438 182.164062 68.246094 182.214844 68.339844 182.261719 C 68.644531 182.371094 68.644531 182.40625 68.324219 182.214844 C 68.4375 182.292969 68.546875 182.339844 68.660156 182.390625 C 68.707031 182.421875 68.882812 182.5 69.183594 182.660156 C 69.199219 182.660156 69.199219 182.660156 69.214844 182.660156 C 70.15625 183.136719 71.082031 183.566406 72.039062 183.984375 C 72.261719 184.09375 72.402344 184.15625 72.355469 184.125 C 72.453125 184.171875 72.53125 184.222656 72.609375 184.253906 C 73.679688 184.730469 74.761719 185.179688 75.863281 185.625 C 75.878906 185.625 75.910156 185.640625 75.925781 185.640625 C 75.988281 185.65625 76.308594 185.800781 76.628906 185.910156 C 76.691406 185.941406 76.753906 185.957031 76.820312 185.976562 C 76.851562 185.992188 76.835938 185.992188 76.867188 186.007812 C 77.742188 186.339844 78.621094 186.675781 79.496094 186.980469 C 79.734375 187.089844 79.941406 187.152344 80.085938 187.21875 C 81.234375 187.601562 82.347656 187.96875 83.496094 188.316406 C 83.527344 188.332031 83.558594 188.347656 83.609375 188.367188 C 83.671875 188.382812 83.976562 188.476562 84.308594 188.574219 C 84.324219 188.574219 84.339844 188.589844 84.355469 188.589844 C 84.4375 188.605469 84.421875 188.605469 84.5 188.636719 C 85.472656 188.9375 86.621094 189.371094 88.117188 189.65625 C 88.132812 189.65625 88.132812 189.65625 88.148438 189.65625 C 96.023438 191.105469 103.339844 191.761719 110.160156 191.761719 C 168.652344 191.777344 187.410156 144.25 187.410156 144.25 C 188.125 142.355469 187.34375 140.21875 185.578125 139.230469 C 183.808594 138.257812 181.574219 138.71875 180.347656 140.328125 C 163.695312 162.226562 133.828125 166.660156 104.695312 159.964844 C 103.816406 159.757812 102.78125 159.4375 101.585938 159.070312 C 101.570312 159.070312 101.539062 159.054688 101.523438 159.054688 C 101.316406 158.992188 101.089844 158.929688 100.980469 158.882812 C 100.917969 158.863281 100.851562 158.847656 100.789062 158.832031 C 99.769531 158.515625 98.734375 158.164062 97.695312 157.8125 C 97.679688 157.796875 97.648438 157.796875 97.617188 157.78125 C 97.554688 157.765625 97.488281 157.75 97.441406 157.71875 C 97.378906 157.703125 97.3125 157.667969 97.234375 157.652344 C 96.4375 157.367188 95.578125 157.046875 94.683594 156.699219 L 94.542969 156.632812 C 94.191406 156.507812 93.886719 156.394531 93.761719 156.332031 C 92.804688 155.949219 91.816406 155.535156 90.84375 155.105469 C 90.75 155.054688 90.667969 155.023438 90.589844 154.992188 C 90.605469 154.992188 90.398438 154.914062 90.269531 154.863281 C 89.425781 154.464844 88.597656 154.066406 87.734375 153.652344 C 87.671875 153.636719 87.625 153.605469 87.5625 153.574219 C 87.511719 153.558594 87.371094 153.492188 87.082031 153.335938 C 87.050781 153.320312 87.019531 153.304688 86.972656 153.285156 C 86.414062 153.015625 85.792969 152.695312 85.152344 152.347656 C 85.136719 152.332031 85.105469 152.316406 85.089844 152.296875 C 84.582031 152.042969 84.183594 151.851562 83.894531 151.675781 C 83.863281 151.675781 83.847656 151.660156 83.816406 151.644531 C 83.066406 151.246094 82.285156 150.785156 81.457031 150.324219 L 81.773438 150.515625 C 81.234375 150.164062 80.851562 149.972656 80.628906 149.84375 L 80.753906 149.90625 C 79.71875 149.285156 78.699219 148.664062 77.726562 148.042969 C 77.710938 148.027344 77.695312 148.027344 77.695312 148.011719 C 77.503906 147.898438 77.28125 147.757812 77.011719 147.566406 C 76.960938 147.515625 76.898438 147.484375 76.851562 147.453125 C 76.179688 147.023438 75.496094 146.546875 74.777344 146.066406 L 74.730469 146.035156 C 74.585938 145.921875 74.363281 145.765625 74.0625 145.542969 C 73.425781 145.09375 72.785156 144.632812 72.132812 144.140625 L 72.101562 144.140625 C 72.070312 144.105469 72.054688 144.089844 72.023438 144.058594 C 71.765625 143.851562 71.480469 143.644531 71.191406 143.421875 C 70.554688 142.925781 69.949219 142.464844 69.40625 142.019531 L 69.328125 141.972656 C 69.007812 141.699219 68.722656 141.460938 68.515625 141.285156 C 68.515625 141.285156 68.5 141.285156 68.484375 141.269531 C 67.734375 140.664062 67.015625 140.027344 66.234375 139.359375 L 66.570312 139.691406 C 65.917969 138.960938 65.613281 138.863281 65.773438 138.976562 L 65.996094 139.167969 C 65.214844 138.464844 64.417969 137.714844 63.605469 136.949219 L 63.558594 136.917969 C 63.429688 136.792969 63.222656 136.585938 62.953125 136.328125 L 62.839844 136.21875 C 62.25 135.644531 61.710938 135.101562 61.214844 134.609375 C 61.199219 134.59375 61.199219 134.59375 61.183594 134.578125 C 60.960938 134.351562 60.753906 134.128906 60.5 133.875 C 59.796875 133.171875 59.113281 132.425781 58.425781 131.660156 C 58.394531 131.628906 58.347656 131.578125 58.316406 131.53125 L 58.300781 131.53125 C 57.582031 130.75 56.882812 129.9375 56.164062 129.09375 C 56.164062 129.078125 56.164062 129.0625 56.148438 129.046875 C 56.035156 128.917969 55.84375 128.679688 55.542969 128.328125 C 55.046875 127.722656 54.554688 127.085938 54.011719 126.433594 L 53.996094 126.417969 C 53.820312 126.175781 53.628906 125.921875 53.519531 125.777344 L 53.503906 125.761719 C 52.898438 124.964844 52.324219 124.183594 51.75 123.386719 L 51.734375 123.371094 C 44.050781 112.789062 38.746094 95.671875 37.261719 79.195312 C 35.765625 62.730469 38.328125 46.921875 44.066406 39.140625 C 44.992188 37.914062 45.136719 36.273438 44.449219 34.902344 C 43.765625 33.515625 42.363281 32.65625 40.816406 32.640625 Z M 115.070312 35.285156 C 115.292969 37.515625 115.054688 39.765625 115.59375 41.949219 C 117.96875 51.398438 123.277344 60.324219 130.878906 66.234375 C 133.476562 68.246094 136.265625 69.980469 139.148438 71.398438 C 139.167969 71.414062 139.183594 71.433594 139.199219 71.433594 C 140.726562 72.164062 142.304688 72.835938 143.914062 73.425781 L 143.882812 73.40625 C 145.125 73.871094 146.53125 74.347656 147.949219 74.699219 C 151.628906 75.609375 155.183594 76.085938 158.625 76.277344 C 156.203125 76.769531 154.179688 77.601562 151.085938 77.503906 C 148.664062 77.425781 145.988281 77.121094 143.070312 76.546875 L 143.054688 76.546875 C 142.863281 76.515625 142.371094 76.324219 141.523438 76.070312 C 141.429688 76.039062 141.238281 75.972656 141.03125 75.910156 C 140.535156 75.734375 140.136719 75.609375 139.835938 75.480469 C 139.804688 75.464844 139.789062 75.464844 139.757812 75.449219 C 129.683594 71.671875 120.964844 63.605469 116.757812 53.484375 C 115.054688 49.375 114.191406 45.070312 114.238281 40.847656 C 114.257812 38.953125 114.703125 37.117188 115.070312 35.285156 Z M 73.597656 46.792969 C 72.5625 53.695312 72.578125 60.769531 74.667969 67.574219 C 78.96875 81.757812 87.960938 94.144531 99.324219 103.210938 C 99.5625 103.417969 99.800781 103.609375 99.960938 103.753906 C 99.992188 103.769531 100.023438 103.800781 100.054688 103.816406 C 101.074219 104.613281 102.144531 105.425781 103.257812 106.207031 C 103.273438 106.222656 103.308594 106.238281 103.339844 106.253906 C 103.847656 106.605469 104.359375 106.941406 104.917969 107.292969 C 104.917969 107.308594 104.917969 107.308594 104.917969 107.308594 C 104.949219 107.324219 105.234375 107.546875 105.777344 107.863281 C 106.542969 108.359375 107.308594 108.820312 107.945312 109.21875 C 107.976562 109.234375 107.992188 109.25 108.007812 109.265625 C 108.296875 109.425781 108.488281 109.539062 108.566406 109.570312 C 109.140625 109.921875 109.777344 110.304688 110.542969 110.703125 C 110.542969 110.703125 110.542969 110.703125 110.542969 110.71875 C 110.84375 110.859375 111.148438 111.019531 111.449219 111.164062 C 111.945312 111.417969 112.421875 111.675781 112.902344 111.929688 C 112.933594 111.945312 112.964844 111.960938 113.011719 111.976562 C 113.90625 112.421875 114.863281 112.871094 115.851562 113.300781 C 116.375 113.570312 116.597656 113.648438 116.742188 113.699219 C 117.667969 114.113281 118.542969 114.445312 119.339844 114.765625 C 119.738281 114.925781 120.121094 115.070312 120.421875 115.195312 L 120.40625 115.179688 C 121.253906 115.5 122.082031 115.769531 122.863281 116.023438 C 123.101562 116.121094 123.4375 116.214844 123.800781 116.328125 C 124.933594 116.710938 126.097656 117.0625 127.277344 117.363281 C 142.578125 121.394531 157.160156 119.324219 169.480469 113.539062 C 161.988281 120.25 151.121094 126.097656 134.542969 126.464844 C 129.605469 126.574219 124.167969 126.191406 118.175781 125.1875 C 118.160156 125.171875 118.144531 125.171875 118.128906 125.171875 C 117.632812 125.09375 116.773438 124.773438 115.53125 124.375 C 115.179688 124.28125 114.878906 124.167969 114.558594 124.058594 C 113.859375 123.835938 113.140625 123.578125 112.4375 123.324219 L 112.40625 123.308594 C 112.230469 123.246094 111.882812 123.117188 111.46875 122.972656 L 111.371094 122.925781 C 111.339844 122.910156 111.339844 122.910156 111.308594 122.910156 C 110.636719 122.640625 109.9375 122.335938 109.203125 122.015625 C 109.203125 122.015625 109.203125 122.015625 109.1875 122.015625 C 108.980469 121.921875 108.773438 121.828125 108.535156 121.746094 C 107.578125 121.300781 106.667969 120.886719 105.824219 120.457031 C 105.777344 120.441406 105.730469 120.421875 105.679688 120.40625 C 105.265625 120.167969 104.804688 119.929688 104.3125 119.691406 L 104.261719 119.660156 C 104.230469 119.644531 104.214844 119.625 104.183594 119.609375 C 103.992188 119.515625 103.785156 119.402344 103.785156 119.402344 C 103.6875 119.339844 103.59375 119.292969 103.515625 119.246094 C 102.925781 118.941406 102.320312 118.589844 101.746094 118.242188 C 101.632812 118.175781 101.539062 118.128906 101.425781 118.066406 C 101.425781 118.066406 101.332031 118.015625 101.28125 118 C 100.582031 117.570312 99.914062 117.15625 99.226562 116.710938 C 99.210938 116.695312 99.195312 116.679688 99.179688 116.664062 C 99.117188 116.628906 98.90625 116.488281 98.558594 116.265625 C 98.046875 115.929688 97.632812 115.660156 97.3125 115.433594 C 97.21875 115.355469 97.105469 115.292969 96.996094 115.210938 C 96.996094 115.210938 96.980469 115.210938 96.964844 115.195312 C 96.039062 114.527344 95.132812 113.859375 94.269531 113.171875 C 94.222656 113.140625 94.175781 113.109375 94.144531 113.078125 C 94.125 113.0625 93.886719 112.871094 93.585938 112.628906 C 92.675781 111.914062 91.816406 111.195312 90.972656 110.445312 C 90.957031 110.429688 90.957031 110.429688 90.9375 110.414062 C 90.90625 110.382812 90.859375 110.351562 90.828125 110.320312 C 90.8125 110.304688 90.78125 110.289062 90.765625 110.273438 C 90.730469 110.238281 90.714844 110.222656 90.699219 110.207031 C 89.902344 109.492188 89.121094 108.757812 88.339844 107.992188 L 88.292969 107.945312 C 88.085938 107.738281 87.894531 107.546875 87.71875 107.355469 C 87.703125 107.355469 87.703125 107.339844 87.6875 107.339844 C 86.84375 106.496094 86.078125 105.699219 85.410156 104.917969 C 85.28125 104.773438 85.152344 104.644531 85.011719 104.535156 C 83.449219 103.164062 81.710938 100.582031 80.007812 98.09375 C 79.992188 98.078125 79.992188 98.078125 79.992188 98.0625 C 78.269531 95.609375 76.738281 93.011719 75.398438 90.316406 C 75.398438 90.300781 75.398438 90.300781 75.398438 90.285156 C 68.5625 76.785156 67.65625 60.449219 73.597656 46.792969 Z M 29.660156 57.4375 C 28.75 64.5625 28.433594 72.117188 29.132812 79.941406 C 30.726562 97.585938 36.097656 115.722656 45.136719 128.152344 C 45.757812 129.046875 46.394531 129.890625 47.046875 130.75 C 47.285156 131.070312 47.445312 131.261719 47.492188 131.324219 C 47.558594 131.421875 47.621094 131.515625 47.699219 131.597656 C 48.210938 132.234375 48.738281 132.886719 49.277344 133.570312 C 49.328125 133.621094 49.359375 133.652344 49.40625 133.699219 C 49.5 133.8125 49.675781 134.050781 49.964844 134.386719 C 50.695312 135.246094 51.460938 136.136719 52.257812 137.015625 C 52.289062 137.046875 52.324219 137.09375 52.355469 137.125 C 53.105469 137.953125 53.882812 138.785156 54.679688 139.597656 C 54.890625 139.804688 55.113281 140.042969 55.382812 140.3125 C 55.398438 140.328125 55.398438 140.328125 55.398438 140.328125 L 55.414062 140.34375 C 56.050781 140.984375 56.640625 141.574219 57.199219 142.113281 C 57.230469 142.148438 57.28125 142.195312 57.3125 142.226562 C 57.4375 142.335938 57.628906 142.546875 57.964844 142.863281 C 57.980469 142.878906 57.996094 142.878906 58.011719 142.894531 C 58.824219 143.660156 59.671875 144.457031 60.546875 145.222656 C 60.609375 145.300781 60.691406 145.367188 60.769531 145.429688 C 61.105469 145.683594 61.023438 145.714844 60.515625 145.160156 C 60.625 145.269531 60.738281 145.382812 60.847656 145.476562 C 61.644531 146.195312 62.460938 146.894531 63.351562 147.613281 C 63.671875 147.867188 63.925781 148.074219 64.117188 148.234375 C 64.132812 148.25 64.164062 148.28125 64.179688 148.296875 C 64.867188 148.855469 65.519531 149.351562 66.125 149.828125 C 66.171875 149.875 66.21875 149.90625 66.253906 149.941406 C 66.523438 150.117188 66.777344 150.324219 67.066406 150.53125 C 67.097656 150.578125 67.128906 150.609375 67.175781 150.640625 C 67.894531 151.152344 68.59375 151.675781 69.359375 152.21875 C 69.519531 152.332031 69.757812 152.523438 70.0625 152.746094 C 70.078125 152.746094 70.09375 152.761719 70.125 152.761719 C 70.859375 153.269531 71.640625 153.8125 72.484375 154.339844 C 72.707031 154.5 72.960938 154.6875 73.296875 154.898438 C 73.3125 154.914062 73.328125 154.914062 73.328125 154.914062 C 74.414062 155.613281 75.496094 156.28125 76.546875 156.90625 C 76.578125 156.921875 76.613281 156.953125 76.660156 156.96875 C 77.011719 157.160156 77.167969 157.253906 77.136719 157.238281 C 77.234375 157.304688 77.34375 157.382812 77.457031 157.445312 C 78.222656 157.859375 79.019531 158.324219 79.863281 158.785156 L 79.878906 158.800781 C 79.894531 158.800781 79.910156 158.816406 79.941406 158.816406 C 80.46875 159.121094 80.945312 159.359375 81.34375 159.566406 C 81.964844 159.902344 82.636719 160.25 83.335938 160.585938 C 83.351562 160.601562 83.402344 160.617188 83.402344 160.632812 C 83.433594 160.632812 83.433594 160.632812 83.449219 160.648438 C 83.6875 160.761719 83.957031 160.921875 84.390625 161.097656 C 85.1875 161.496094 86 161.878906 86.84375 162.257812 C 86.90625 162.292969 86.972656 162.324219 87.035156 162.355469 C 87.050781 162.355469 87.320312 162.46875 87.527344 162.5625 C 88.546875 163.007812 89.632812 163.472656 90.765625 163.917969 C 90.765625 163.933594 90.78125 163.933594 90.78125 163.933594 C 91.148438 164.078125 91.371094 164.15625 91.417969 164.171875 C 91.480469 164.203125 91.527344 164.21875 91.59375 164.234375 C 92.53125 164.617188 93.519531 165 94.574219 165.367188 C 94.75 165.429688 94.941406 165.496094 95.113281 165.558594 C 96.117188 165.910156 97.15625 166.242188 98.222656 166.578125 C 98.636719 166.722656 99.003906 166.816406 99.324219 166.914062 C 100.375 167.230469 101.539062 167.613281 102.875 167.917969 C 124.472656 172.890625 147.070312 171.632812 165.429688 162.292969 C 154.816406 172.921875 137.414062 183.601562 110.160156 183.601562 C 103.863281 183.601562 97.042969 182.996094 89.632812 181.625 C 88.898438 181.480469 87.960938 181.160156 86.699219 180.777344 C 86.636719 180.746094 86.574219 180.730469 86.507812 180.714844 C 86.492188 180.714844 86.238281 180.636719 85.933594 180.539062 L 85.808594 180.507812 C 84.789062 180.1875 83.785156 179.855469 82.761719 179.503906 C 82.730469 179.488281 82.714844 179.488281 82.683594 179.472656 C 82.570312 179.441406 82.605469 179.457031 82.636719 179.457031 C 82.589844 179.441406 82.523438 179.410156 82.476562 179.390625 C 81.503906 179.042969 80.53125 178.675781 79.625 178.324219 C 79.558594 178.292969 79.480469 178.277344 79.402344 178.246094 C 79.433594 178.261719 79.210938 178.164062 78.875 178.039062 L 78.8125 178.007812 C 77.824219 177.609375 76.867188 177.210938 75.894531 176.777344 C 75.703125 176.699219 75.449219 176.570312 75.417969 176.570312 C 75.398438 176.554688 75.382812 176.539062 75.367188 176.539062 C 74.476562 176.140625 73.648438 175.757812 72.851562 175.359375 L 72.820312 175.359375 C 72.753906 175.3125 72.515625 175.199219 72.355469 175.121094 C 71.988281 174.914062 71.941406 174.914062 71.8125 174.867188 L 71.75 174.851562 C 71.242188 174.578125 70.730469 174.308594 70.238281 174.039062 C 70.1875 174.003906 70.140625 173.972656 70.09375 173.957031 C 69.613281 173.71875 69.25 173.527344 68.960938 173.367188 C 68.945312 173.351562 68.914062 173.335938 68.898438 173.335938 C 68.164062 172.9375 67.429688 172.523438 66.699219 172.09375 L 66.667969 172.078125 C 66.347656 171.886719 66.046875 171.710938 65.726562 171.550781 L 65.648438 171.488281 C 64.691406 170.914062 63.75 170.324219 62.808594 169.71875 C 62.539062 169.527344 62.269531 169.367188 61.996094 169.191406 L 61.980469 169.175781 C 61.980469 169.175781 61.980469 169.175781 61.964844 169.175781 C 61.34375 168.746094 60.738281 168.332031 60.085938 167.902344 C 59.988281 167.820312 59.878906 167.742188 59.765625 167.664062 C 59.605469 167.566406 59.414062 167.421875 59.191406 167.265625 C 59.175781 167.25 59.160156 167.230469 59.144531 167.214844 C 58.476562 166.753906 57.820312 166.277344 57.199219 165.8125 L 57.183594 165.796875 L 57.167969 165.796875 C 56.863281 165.558594 56.5625 165.320312 56.226562 165.066406 L 56.210938 165.046875 C 55.574219 164.570312 54.984375 164.125 54.441406 163.679688 L 54.425781 163.664062 C 54.109375 163.40625 53.835938 163.199219 53.613281 163.007812 C 53.613281 162.992188 53.597656 162.992188 53.597656 162.992188 C 52.863281 162.371094 52.148438 161.75 51.429688 161.144531 C 51.335938 161.046875 51.253906 160.984375 51.191406 160.953125 C 51.128906 160.875 51.046875 160.808594 50.984375 160.746094 C 50.25 160.125 49.5 159.40625 48.722656 158.671875 L 48.703125 158.640625 C 48.433594 158.386719 48.195312 158.179688 47.988281 157.972656 C 47.972656 157.957031 47.957031 157.941406 47.941406 157.925781 C 47.429688 157.445312 46.902344 156.890625 46.3125 156.300781 C 46.28125 156.265625 46.25 156.234375 46.21875 156.1875 C 45.996094 155.980469 45.804688 155.804688 45.613281 155.613281 C 44.894531 154.847656 44.195312 154.101562 43.492188 153.335938 C 43.476562 153.320312 43.460938 153.304688 43.460938 153.304688 C 43.429688 153.253906 43.398438 153.222656 43.351562 153.191406 C 42.648438 152.394531 41.964844 151.613281 41.308594 150.816406 C 41.277344 150.785156 41.246094 150.753906 41.214844 150.703125 C 41.085938 150.5625 40.910156 150.355469 40.71875 150.132812 L 40.703125 150.117188 C 40.703125 150.097656 40.6875 150.082031 40.671875 150.066406 C 40.179688 149.445312 39.652344 148.792969 39.109375 148.140625 C 38.917969 147.882812 38.742188 147.644531 38.664062 147.515625 C 38.617188 147.46875 38.585938 147.421875 38.554688 147.390625 C 38.027344 146.703125 37.5 146.019531 36.976562 145.285156 L 36.941406 145.238281 C 36.800781 145.03125 36.703125 144.917969 36.75 144.984375 C 36.71875 144.9375 36.6875 144.886719 36.65625 144.839844 C 36.625 144.792969 36.59375 144.761719 36.5625 144.710938 C 36.542969 144.695312 36.527344 144.664062 36.511719 144.648438 C 36.511719 144.648438 36.511719 144.648438 36.496094 144.648438 C 35.953125 143.882812 35.414062 143.070312 34.839844 142.210938 C 34.824219 142.164062 34.792969 142.113281 34.742188 142.066406 C 34.648438 141.921875 34.519531 141.714844 34.359375 141.460938 L 34.3125 141.398438 C 33.835938 140.617188 33.40625 139.980469 33.117188 139.484375 C 33.085938 139.421875 33.039062 139.339844 32.992188 139.277344 C 32.863281 139.085938 32.703125 138.800781 32.464844 138.417969 L 32.449219 138.386719 C 32.113281 137.828125 31.761719 137.238281 31.398438 136.617188 L 31.398438 136.585938 C 31.363281 136.550781 31.363281 136.535156 31.332031 136.503906 C 31.171875 136.1875 31.03125 135.914062 30.917969 135.691406 C 30.871094 135.597656 30.824219 135.515625 30.757812 135.421875 C 30.585938 135.101562 30.519531 134.957031 30.664062 135.261719 C 30.601562 135.117188 30.535156 134.992188 30.472656 134.878906 C 30.328125 134.625 30.1875 134.386719 30.089844 134.128906 C 30.058594 134.066406 30.027344 134.003906 29.996094 133.9375 C 29.675781 133.332031 29.421875 132.855469 29.230469 132.472656 C 29.214844 132.425781 29.199219 132.375 29.179688 132.34375 C 18.550781 110.910156 17.054688 77.871094 29.660156 57.4375 Z M 91.050781 110.589844 L 91.097656 110.605469 C 91.164062 110.703125 91.148438 110.671875 91.226562 110.796875 C 91.179688 110.71875 91.113281 110.652344 91.050781 110.589844 Z M 43.523438 153.429688 C 43.523438 153.429688 43.574219 153.476562 43.589844 153.492188 C 43.636719 153.542969 43.621094 153.527344 43.667969 153.589844 L 43.683594 153.605469 L 43.683594 153.621094 C 43.714844 153.636719 43.734375 153.683594 43.75 153.71875 C 43.621094 153.542969 43.574219 153.476562 43.523438 153.429688 Z M 60.164062 167.980469 L 60.308594 168.0625 C 60.019531 167.855469 60.035156 167.835938 60.308594 168.09375 C 60.257812 168.046875 60.210938 168.011719 60.164062 167.980469 Z M 60.164062 167.980469 "/>
</g>
</svg>
